<svg xmlns="http://www.w3.org/2000/svg" viewBox="0 0 560.2 252.669"><rect width="560.2" height="252.669" style="fill:none"/><path d="M208.016,164.668v-1.847H222.1v1.847h-5.918v17.3h-2.223v-17.3Z"/><path d="M234.369,179.745a5.907,5.907,0,0,1-5.328,2.464c-4.445,0-6.935-2.919-6.935-7.2,0-4.311,2.6-7.283,6.373-7.283,3.723,0,6,2.624,6,6.962v.724H224.409c.052,2.007.507,3.132,1.472,4.016a4.357,4.357,0,0,0,3.107.938,4.1,4.1,0,0,0,3.749-1.929Zm-2.167-6.132c-.295-2.866-1.367-4.043-3.7-4.043-2.222,0-3.508,1.311-4.016,4.043Z"/><path d="M249.612,179.263a5.831,5.831,0,0,1-5.491,2.946c-3.91,0-6.587-2.972-6.587-7.23,0-4.338,2.6-7.257,6.454-7.257a5.933,5.933,0,0,1,5.275,2.784l-1.848,1.153c-1.044-1.554-1.874-2.089-3.4-2.089-2.624,0-4.178,2.008-4.178,5.463,0,3.4,1.528,5.329,4.339,5.329a3.955,3.955,0,0,0,3.695-2.089Z"/><path d="M255.586,167.962v2.143a4.477,4.477,0,0,1,4.258-2.383c3,0,4.633,1.954,4.633,5.569v8.677h-2.223v-8.837c0-2.41-.91-3.481-2.972-3.481a3.487,3.487,0,0,0-3.7,3.749v8.569h-2.222V167.962Z"/><path d="M281.888,174.952c0,4.231-2.758,7.257-6.642,7.257-3.8,0-6.586-3.052-6.586-7.23,0-4.232,2.758-7.257,6.667-7.257C279.13,167.722,281.888,170.775,281.888,174.952Zm-10.926.053c0,3.294,1.661,5.357,4.284,5.357,2.653,0,4.339-2.089,4.339-5.383,0-3.268-1.686-5.409-4.258-5.409C272.623,169.57,270.962,171.605,270.962,175.005Z"/><path d="M292.1,181.539a4.4,4.4,0,0,1-2.464.643c-2.035,0-3.4-.91-3.4-3.695V161.8h2.222v16.871c0,1.313.7,1.66,1.528,1.66a2.106,2.106,0,0,0,1.391-.455Z"/><path d="M306.853,174.952c0,4.231-2.758,7.257-6.641,7.257-3.8,0-6.588-3.052-6.588-7.23,0-4.232,2.758-7.257,6.668-7.257C304.1,167.722,306.853,170.775,306.853,174.952Zm-10.926.053c0,3.294,1.66,5.357,4.285,5.357,2.651,0,4.338-2.089,4.338-5.383,0-3.268-1.687-5.409-4.258-5.409C297.587,169.57,295.927,171.605,295.927,175.005Z"/><path d="M317.409,178.915c3.16,0,4.927,1.366,4.927,3.776,0,2.759-2.544,4.5-6.614,4.5-3.776,0-6.187-1.5-6.187-3.856,0-1.258.777-2.25,2.384-3a2.365,2.365,0,0,1-1.366-2.249,2.635,2.635,0,0,1,1.526-2.383,4.2,4.2,0,0,1-1.713-3.428c0-2.7,2.088-4.552,5.141-4.552a6.27,6.27,0,0,1,2.785.589l4.017-.563v2.009H320.22a4.056,4.056,0,0,1,.911,2.678c0,2.758-2.035,4.445-5.3,4.445a6.157,6.157,0,0,1-2.543-.482,1.626,1.626,0,0,0-.723,1.312c0,.91.509,1.2,2.061,1.2Zm-3.053,1.928c-.214,0-.67-.026-.884-.054-1.231.617-1.768,1.34-1.768,2.331,0,1.526,1.367,2.3,4.071,2.3,2.892,0,4.392-.91,4.392-2.624,0-1.312-.937-1.955-2.785-1.955Zm-1.768-8.569c0,1.741,1.233,2.839,3.24,2.839,1.982,0,3.081-.992,3.081-2.785,0-1.714-1.233-2.839-3.187-2.839S312.588,170.534,312.588,172.274Z"/><path d="M328.713,163.6a1.473,1.473,0,1,1-1.472-1.474A1.486,1.486,0,0,1,328.713,163.6Zm-.321,4.364v14.006h-2.223V167.962Z"/><path d="M345.158,182.048c-.294.028-.563.028-.777.028a2.735,2.735,0,0,1-2.892-2.009,5.287,5.287,0,0,1-4.311,2.142c-2.6,0-4.419-1.607-4.419-3.856,0-2.062,1.365-3.535,3.857-4.2a18.985,18.985,0,0,1,4.739-.536v-.884c0-2.169-.857-3.159-2.758-3.159a5.664,5.664,0,0,0-4.017,1.74l-1.312-1.446a7.266,7.266,0,0,1,5.329-2.142c3.213,0,4.98,1.767,4.98,5.007v6.24c0,.99.375,1.312,1.581,1.339Zm-3.8-6.855c-4.5.161-6.373,1.045-6.373,3.052,0,1.393.91,2.17,2.57,2.17,2.223,0,3.8-1.286,3.8-3.08Z"/><path d="M359.6,167.962v2.3a5.316,5.316,0,0,1,4.66-2.544c3.588,0,5.972,2.838,5.972,7.177,0,4.418-2.357,7.31-6,7.31a5.193,5.193,0,0,1-4.633-2.49v7.123h-2.223v-18.88Zm-.08,7.017c0,3.428,1.58,5.383,4.339,5.383,2.7,0,4.07-1.768,4.07-5.329,0-3.428-1.5-5.463-4.044-5.463C361.151,169.57,359.517,171.605,359.517,174.979Z"/><path d="M385.791,182.048c-.294.028-.562.028-.776.028a2.737,2.737,0,0,1-2.893-2.009,5.284,5.284,0,0,1-4.311,2.142c-2.6,0-4.418-1.607-4.418-3.856,0-2.062,1.365-3.535,3.856-4.2a18.994,18.994,0,0,1,4.74-.536v-.884c0-2.169-.857-3.159-2.758-3.159a5.664,5.664,0,0,0-4.017,1.74l-1.312-1.446a7.266,7.266,0,0,1,5.329-2.142c3.213,0,4.98,1.767,4.98,5.007v6.24c0,.99.375,1.312,1.58,1.339Zm-3.8-6.855c-4.5.161-6.373,1.045-6.373,3.052,0,1.393.91,2.17,2.57,2.17,2.223,0,3.8-1.286,3.8-3.08Z"/><path d="M391.607,167.962v2.25a4.07,4.07,0,0,1,3.75-2.49,4.479,4.479,0,0,1,2.275.562l-.91,1.875a3.047,3.047,0,0,0-1.634-.429c-2.169,0-3.481,1.741-3.481,4.553v7.685h-2.223V167.962Z"/><path d="M411.775,182.048c-.294.028-.563.028-.777.028a2.736,2.736,0,0,1-2.892-2.009,5.287,5.287,0,0,1-4.311,2.142c-2.6,0-4.419-1.607-4.419-3.856,0-2.062,1.366-3.535,3.857-4.2a18.985,18.985,0,0,1,4.739-.536v-.884c0-2.169-.856-3.159-2.758-3.159a5.661,5.661,0,0,0-4.016,1.74l-1.313-1.446a7.267,7.267,0,0,1,5.329-2.142c3.213,0,4.981,1.767,4.981,5.007v6.24c0,.99.375,1.312,1.58,1.339Zm-3.8-6.855c-4.5.161-6.373,1.045-6.373,3.052,0,1.393.91,2.17,2.57,2.17,2.223,0,3.8-1.286,3.8-3.08Z"/><path d="M435.212,182.048c-.294.028-.562.028-.776.028a2.737,2.737,0,0,1-2.893-2.009,5.284,5.284,0,0,1-4.31,2.142c-2.6,0-4.419-1.607-4.419-3.856,0-2.062,1.365-3.535,3.856-4.2a18.994,18.994,0,0,1,4.74-.536v-.884c0-2.169-.857-3.159-2.758-3.159a5.662,5.662,0,0,0-4.017,1.74l-1.312-1.446a7.264,7.264,0,0,1,5.329-2.142c3.213,0,4.98,1.767,4.98,5.007v6.24c0,.99.375,1.312,1.58,1.339Zm-3.8-6.855c-4.5.161-6.374,1.045-6.374,3.052,0,1.393.911,2.17,2.571,2.17,2.222,0,3.8-1.286,3.8-3.08Z"/><path d="M447.644,167.962l3.749,11.757,3.669-11.757h2.3l-4.713,14.006h-2.625l-4.793-14.006Z"/><path d="M463.179,163.6a1.473,1.473,0,1,1-1.473-1.474A1.487,1.487,0,0,1,463.179,163.6Zm-.321,4.364v14.006h-2.223V167.962Z"/><path d="M477.856,179.719a5.22,5.22,0,0,1-4.633,2.49c-3.642,0-6-2.865-6-7.31,0-4.339,2.383-7.177,5.972-7.177a5.314,5.314,0,0,1,4.659,2.544V161.8h2.222v20.165h-2.222Zm-8.328-4.686c0,3.534,1.339,5.329,4.016,5.329,2.813,0,4.393-1.955,4.393-5.383,0-3.348-1.634-5.409-4.312-5.409C471,169.57,469.528,171.551,469.528,175.033Z"/><path d="M496.552,182.048c-.294.028-.562.028-.776.028a2.737,2.737,0,0,1-2.893-2.009,5.284,5.284,0,0,1-4.31,2.142c-2.6,0-4.419-1.607-4.419-3.856,0-2.062,1.365-3.535,3.856-4.2a18.991,18.991,0,0,1,4.739-.536v-.884c0-2.169-.856-3.159-2.757-3.159a5.662,5.662,0,0,0-4.017,1.74l-1.313-1.446a7.268,7.268,0,0,1,5.33-2.142c3.212,0,4.98,1.767,4.98,5.007v6.24c0,.99.375,1.312,1.58,1.339Zm-3.8-6.855c-4.5.161-6.373,1.045-6.373,3.052,0,1.393.91,2.17,2.571,2.17,2.222,0,3.8-1.286,3.8-3.08Z"/><path d="M248.8,110.3a13.766,13.766,0,0,0,8.8-13c0-11.7-8.3-17.5-19.7-17.5H208v63.6h32.5c10,0,19.8-7,19.8-17.7C260.3,113,248.8,110.4,248.8,110.3ZM223.6,93h11.6a5.669,5.669,0,0,1,6,6,5.927,5.927,0,0,1-6.3,5.8H223.6V93Zm11.7,37.1H223.6V117.6H235c5.7,0,8.4,2.5,8.4,6.2C243.4,128.4,240,130.1,235.3,130.1Z" style="fill:#ed0007;fill-rule:evenodd"/><path d="M294.7,78.2c-18.4,0-29.2,14.7-29.2,33.3,0,18.7,10.8,33.3,29.2,33.3,18.5,0,29.2-14.6,29.2-33.3C323.9,92.9,313.2,78.2,294.7,78.2Zm0,51.4c-9,0-13.5-8.1-13.5-18.1s4.5-18,13.5-18,13.6,8.1,13.6,18C308.3,121.6,303.7,129.6,294.7,129.6Z" style="fill:#ed0007;fill-rule:evenodd"/><path d="M357.8,104.8l-2.2-.5c-5.4-1.1-9.7-2.5-9.7-6.4,0-4.2,4.1-5.9,7.7-5.9a17.894,17.894,0,0,1,13,5.9l9.9-9.8c-4.5-5.1-11.8-10-23.2-10-13.4,0-23.6,7.5-23.6,20,0,11.4,8.2,17,18.2,19.1l2.2.5c8.3,1.7,11.4,3,11.4,7,0,3.8-3.4,6.3-8.6,6.3-6.2,0-11.8-2.7-16.1-8.2l-10.1,10c5.6,6.7,12.7,11.9,26.4,11.9,11.9,0,24.6-6.8,24.6-20.7C377.9,109.5,366.9,106.7,357.8,104.8Z" style="fill:#ed0007;fill-rule:evenodd"/><path d="M413.3,129.6c-7,0-14.3-5.8-14.3-18.5,0-11.3,6.8-17.6,13.9-17.6,5.6,0,8.9,2.6,11.5,7.1l12.8-8.5c-6.4-9.7-14-13.8-24.5-13.8-19.2,0-29.6,14.9-29.6,32.9,0,18.9,11.5,33.7,29.4,33.7,12.6,0,18.6-4.4,25.1-13.8l-12.9-8.7C422.1,126.6,419.3,129.6,413.3,129.6Z" style="fill:#ed0007;fill-rule:evenodd"/><polygon points="479.9 79.8 479.9 103.2 460.6 103.2 460.6 79.8 443.9 79.8 443.9 143.4 460.6 143.4 460.6 118.3 479.9 118.3 479.9 143.4 496.6 143.4 496.6 79.8 479.9 79.8" style="fill:#ed0007;fill-rule:evenodd"/><path d="M111.8,63.6A48.2,48.2,0,1,0,160,111.8,48.226,48.226,0,0,0,111.8,63.6Zm0,91.9a43.7,43.7,0,1,1,43.7-43.7A43.745,43.745,0,0,1,111.8,155.5Z"/><path d="M131.7,81.7h-3.3V98.2H95.3V81.7H91.9a36.063,36.063,0,0,0,0,60.2h3.4V125.4h33.1v16.5h3.3a36.063,36.063,0,0,0,0-60.2Zm-41,53.7a31.572,31.572,0,0,1,0-47.2Zm37.7-14.6H95.3V102.7h33.1Zm4.5,14.5v-10h0V98.2h0v-10a31.66,31.66,0,0,1,0,47.1Z"/></svg>